<?xml version="1.0" encoding="UTF-8"?>
<svg xmlns="http://www.w3.org/2000/svg" version="1.1" viewBox="0 0 96 96">
  <!-- Generator: Adobe Illustrator 29.1.0, SVG Export Plug-In . SVG Version: 2.1.0 Build 142)  -->
  <defs>
    <style>
      .st0 {
        fill: #ee3c7c;
      }
    </style>
  </defs>
  <g id="Layer_2">
    <circle class="st0" cx="47.3" cy="47.9" r="45.3"/>
  </g>
  <g id="Layer_1">
    <g id="Layer_11" data-name="Layer_1">
      <path d="M45.4,51.3c-3.2,1-5.9,1.4-8.2,1.4s-4.1,0-5.3-.2l-1.4,17.4c0,.6-.4,1.3-1,2.2s-1.7,2.3-2.3,2.9c-.6.7-3.5,6-3.9,6.1.3-2.4,1.7-5.7,1.5-7.3l4.5-57.5c0-.6-19.1,11.2-18.4,10.3,1.3-1.8,22.2-15.2,23.5-15.4,3.2-1.3,6.4-1.9,9.8-1.9s6.5.7,9.4,2c3.9,1.8,6.7,4.2,8.6,7.3,1.9,3.1,2.9,6.3,2.9,9.7,0,6.4-3,12.1-8.9,17.2-1.2,1-2.4,1.9-3.7,2.7l9,21.3c.2.4,0,1.1-.4,1.9s-1.1,1.6-1.9,2.3-1.6,1.2-2.3,1.4c-.7.2-1.2.1-1.3-.3l-10-23.5h0ZM50.1,41.6c5.6-2.2,8.4-6.3,8.4-12s-.9-5.9-2.6-8.8c-1.7-2.9-4.2-5-7.3-6.5-3.2-1.4-6.3-2.1-9.4-2.1s-3.1.2-4.5.5l-2.5,29.9c5.6,1.3,10.9,1.2,16-.3.8-.5,1.4-.7,1.9-.6h0Z"/>
      <path d="M73.8,37.5c.8-.7,1.6-1.2,2.4-1.6.8-.4,8.4-3.1,9-3.2.5,0-3.3,2.3-3.6,2.4-1.6.6-1.8.5-1.9.8l-6.1,37c-.4,3-1.8,5.5-4.1,7.6-4.2,4.1-9.9,6.1-17.1,6-10.7,0-15.7-11.1-15.7-12,0-.9,1.9-2.6,2.7-3.1.8-.4,3.4-1.6,4-1.7,2-.3.3,1-.8,2.7-.4.6-.5,1.4-.3,2,1.7,5.6,6.4,7.2,15.4,7.2,3.2,0,5.5-.3,6.7-1,.4-.3.8-.9,1.2-1.9.4-.9.7-1.8.8-2.7l6.1-37c0-.5.5-1.1,1.3-1.7h0Z"/>
    </g>
  </g>
</svg>